<?xml version="1.0" standalone="no"?>
<!DOCTYPE svg PUBLIC "-//W3C//DTD SVG 1.1//EN" "http://www.w3.org/Graphics/SVG/1.1/DTD/svg11.dtd" >
<svg xmlns="http://www.w3.org/2000/svg">
<metadata></metadata>
<defs>
<font id="overseerbold" horiz-adv-x="825" >
<font-face units-per-em="2048" ascent="1638" descent="-410" />
<missing-glyph horiz-adv-x="800" />
<glyph unicode="&#xd;" horiz-adv-x="508" />
<glyph horiz-adv-x="0" />
<glyph horiz-adv-x="0" />
<glyph unicode=" "  horiz-adv-x="800" />
<glyph unicode="&#x09;" horiz-adv-x="800" />
<glyph unicode="&#xa0;" horiz-adv-x="800" />
<glyph unicode="!" horiz-adv-x="400" d="M-25 100q0 60 55 102.5t133 42.5q77 0 132 -42.5t55 -102.5t-55 -102.5t-132 -42.5q-78 0 -133 42.5t-55 102.5zM0 355v1065h325v-1065h-325z" />
<glyph unicode="&#x22;" horiz-adv-x="750" d="M-25 1180v240h325v-220q0 -195 -200 -195v175h-125zM350 1180v240h325v-220q0 -195 -200 -195v175h-125z" />
<glyph unicode="#" horiz-adv-x="1150" d="M-25 555v240h175v60h-175v240h175l1 225h325l-1 -225h100l1 225h325l-1 -225h175v-240h-176v-60h176v-240h-175v-225h-325v225h-100v-225h-325v225h-175zM475 795h100v60h-100v-60z" />
<glyph unicode="$" d="M-25 323v197h325v-122q0 -55 46 -55h25q54 0 54 80v127q0 30 -50 30h-50q-350 0 -350 220v275q0 191 226 214l-1 131h325l-1 -131q226 -23 226 -214v-195h-325v95q0 80 -48 80h-25q-50 0 -52 -80v-100q0 -55 25 -55h86q339 0 339 -220v-277q0 -191 -225 -214v-129h-325 v129q-225 23 -225 214z" />
<glyph unicode="%" d="M-25 850v275q0 220 323 220h99q148 0 200 -29l34 104h326l-209 -650h74q329 0 329 -220l-1 -275q0 -220 -324 -220h-101q-146 0 -197 30l-34 -105h-326l209 650h-77q-321 0 -325 220zM300 950q3 -80 50 -80q50 0 50 80l1 75q0 80 -50 80q-51 0 -51 -80v-75zM725 375 q3 -80 50 -80q50 0 50 80l1 75q0 80 -50 80q-51 0 -51 -80v-75z" />
<glyph unicode="&#x26;" d="M-26 325l1 275q5 86 31 100q-24 14 -29 100l-1 275q2 188 225 213l-1 132h325l1 -130q225 -22 225 -215v-95h-320q-2 75 -47 75h-25q-56 0 -56 -80l-1 -55h2q0 -100 63 -100h108v-240h-120q-52 0 -55 -80v-100q0 -55 49 -55h25q50 0 50 75h326l-1 -95q0 -192 -224 -215 v-130h-325v131q-226 23 -226 214z" />
<glyph unicode="'" horiz-adv-x="375" d="M-25 1180v240h325v-220q0 -195 -200 -195v175h-125z" />
<glyph unicode="(" horiz-adv-x="550" d="M-28 1400q3 220 303 220h200v-240h-129q-46 0 -46 -80v-1200q0 -80 50 -80h125v-240h-200q-300 0 -300 220z" />
<glyph unicode=")" horiz-adv-x="550" d="M-28 20h125q50 0 50 80v1200q0 80 -46 80h-129v240h200q300 0 303 -220l-3 -1400q0 -220 -300 -220h-200v240z" />
<glyph unicode="*" horiz-adv-x="750" d="M-30 1068l74 229l171 -55v178h250v-178l170 55l74 -229l-172 -56l106 -146l-199 -144l-104 143l-105 -143l-199 144l106 146z" />
<glyph unicode="+" horiz-adv-x="725" d="M-25 555v240h175l1 225h325l-1 -225h175v-240h-175v-225h-325v225h-175z" />
<glyph unicode="," horiz-adv-x="375" d="M-25 100q0 60 55 102.5t133 42.5q77 0 132 -42.5t55 -102.5v-100q0 -60 -55 -102.5t-157 -42.5v100q-53 0 -108 42.5t-55 102.5z" />
<glyph unicode="-" horiz-adv-x="750" d="M-25 555v240h700v-240h-700z" />
<glyph unicode="." horiz-adv-x="400" d="M-25 100q0 60 55 102.5t133 42.5q77 0 132 -42.5t55 -102.5t-55 -102.5t-132 -42.5q-78 0 -133 42.5t-55 102.5z" />
<glyph unicode="/" d="M-32 -20l463 1440h326l-463 -1440h-326z" />
<glyph unicode="0" d="M-29 175l4 1050q0 220 323 220h123q329 0 329 -220v-1050q0 -220 -324 -220h-125q-326 0 -330 220zM300 275q0 -80 46 -80h25q54 0 54 80v850q0 80 -49 80h-25q-51 0 -51 -80v-850z" />
<glyph unicode="1" horiz-adv-x="475" d="M-25 1180v240h425v-1440h-325v1200h-100z" />
<glyph unicode="2" d="M-25 575q0 220 316 220h84q50 0 51 105l-1 225q0 80 -56 80h-25q-44 0 -44 -80v-120h-325v220q0 220 325 220h125q325 0 327 -220l-2 -450q-4 -220 -328 -220h-69q-53 0 -53 -105l1 -230h450v-240h-775z" />
<glyph unicode="3" d="M-25 175v295h325v-220q0 -55 50 -55h25q50 0 50 55l2 275q-1 80 -52 80h-124v240h112q63 0 63 80l-1 200q0 80 -56 80h-25q-44 0 -44 -80l1 -195h-325l-1 295q0 220 322 220h124q329 0 331 -220l1 -400q-5 -86 -29 -100q27 -15 27 -100l-1 -450q0 -220 -324 -220h-126 q-325 0 -325 220z" />
<glyph unicode="4" horiz-adv-x="950" d="M-25 355v222l255 843h495v-825h150v-240h-150v-375h-325v375h-425zM282 595h118v370z" />
<glyph unicode="5" d="M-27 705l79 715h698l1 -240h-453l-18 -235h148q325 0 325 -220l-3 -550q0 -220 -325 -220h-125q-325 0 -325 220v220h325v-119q12 -81 46 -81h29q50 0 50 80v350q0 80 -52 80h-400z" />
<glyph unicode="6" d="M-29 175l4 1050q0 220 325 220h125q325 0 325 -220v-245h-325v145q0 80 -49 80h-25q-51 0 -51 -80v-230h117q333 0 333 -220v-500q0 -220 -324 -220h-125q-326 0 -330 220zM300 275q0 -80 46 -80h25q54 0 54 80v300q0 80 -53 80h-72v-380z" />
<glyph unicode="7" horiz-adv-x="750" d="M-25 1180v240h700v-221l-178 -1219h-325l175 1200h-372z" />
<glyph unicode="8" d="M-25 175v477q22 67 22 86q0 7 -3 7h1v1q0 10 -20 77v402q0 220 322 220h124q329 0 331 -220l1 -400q-5 -86 -29 -100q27 -15 27 -100l-1 -450q0 -220 -324 -220h-101q-350 0 -350 220zM300 1125l1 -200q0 -80 50 -80h19q56 0 56 80l-1 200q0 80 -49 80h-25q-50 0 -51 -80 zM301 250q10 -55 49 -55h25q49 0 49 55l1 274q-10 81 -49 81h-25q-45 0 -50 -80v-275z" />
<glyph unicode="9" d="M-25 175v245h325v-145q0 -80 49 -80h25q51 0 51 80v230h-121q-329 0 -329 220v500q0 220 324 220h125q326 0 326 -220v-1050q0 -220 -325 -220h-125q-325 0 -325 220zM300 825q0 -80 49 -80h76v380q0 80 -46 80h-25q-54 0 -54 -80v-300z" />
<glyph unicode=":" horiz-adv-x="375" d="M-25 100q0 60 55 102.5t133 42.5q77 0 132 -42.5t55 -102.5t-55 -102.5t-132 -42.5q-78 0 -133 42.5t-55 102.5zM-25 725q0 60 55 102.5t133 42.5q77 0 132 -42.5t55 -102.5t-55 -102.5t-132 -42.5q-78 0 -133 42.5t-55 102.5z" />
<glyph unicode=";" horiz-adv-x="375" d="M-25 100q0 60 55 102.5t133 42.5q77 0 132 -42.5t55 -102.5v-100q0 -60 -55 -102.5t-157 -42.5v100q-53 0 -108 42.5t-55 102.5zM-25 725q0 60 55 102.5t133 42.5q77 0 132 -42.5t55 -102.5t-55 -102.5t-132 -42.5q-78 0 -133 42.5t-55 102.5z" />
<glyph unicode="&#x3c;" horiz-adv-x="750" d="M-25 561v228l700 215v-243l-285 -86l285 -86v-243z" />
<glyph unicode="=" horiz-adv-x="750" d="M-26 355l1 240h700v-240h-701zM-25 755v240h700v-240h-700z" />
<glyph unicode="&#x3e;" horiz-adv-x="750" d="M-25 346v243l285 86l-285 86v243l700 -215v-228z" />
<glyph unicode="?" d="M-25 930v295q0 220 325 220h100q350 0 350 -220v-450q0 -220 -325 -220q-47 0 -47 -96v-9l-4 -95h-324v220q0 220 325 220q50 0 50 106v224q0 80 -57 80h-25q-43 0 -43 -80v-195h-325zM25 100q0 60 55 102.5t133 42.5q77 0 132 -42.5t55 -102.5t-55 -102.5t-132 -42.5 q-78 0 -133 42.5t-55 102.5z" />
<glyph unicode="@" horiz-adv-x="1100" d="M-24 300v800q0 220 325 220h424q300 0 300 -220l1 -745h-425q-300 0 -300 220v-175q0 -80 50 -80h675l-1 -240h-723q-326 0 -326 220zM301 842q16 178 246 178h153q0 60 -49 60h-299q-50 0 -51 -80v-158zM625 675q1 -80 26 -80h24q25 0 26 80v130h-25q-50 0 -50 -80z" />
<glyph unicode="A" d="M-28 -20l231 1440h319l231 -1440h-325l-16 100h-99l-16 -100h-325zM353 320h19l-10 60z" />
<glyph unicode="B" d="M-25 -20v1440h450q325 0 325 -220v-375q-2 -86 -27 -99q27 -16 27 -101v-425q0 -220 -324 -220h-451zM300 220h71q54 0 54 80v225q0 80 -44 80h-81v-385zM300 845h69q56 0 56 55v200q0 80 -49 80h-75z" />
<glyph unicode="C" d="M-29 175l4 1050q0 220 323 220h123q329 0 329 -220v-295h-325v195q0 80 -49 80h-25q-51 0 -51 -80v-850q0 -80 46 -80h25q54 0 54 80v195h325v-295q0 -220 -324 -220h-125q-326 0 -330 220z" />
<glyph unicode="D" d="M-25 -20v1440h450q325 0 325 -220v-1000q0 -220 -325 -220h-450zM300 220h71q54 0 54 80v800q0 80 -49 80h-75z" />
<glyph unicode="E" horiz-adv-x="750" d="M-25 -20v1440h700v-240h-375v-385h375v-240h-375v-335h375v-240h-700z" />
<glyph unicode="F" horiz-adv-x="750" d="M-25 -20v1440h700v-240h-375v-385h375v-240h-375v-575h-325z" />
<glyph unicode="G" d="M-25 175v1050q0 220 325 220h125q325 0 325 -220v-295h-325v195q0 80 -49 80h-25q-51 0 -51 -80v-850q0 -80 46 -80h25q53 0 54 80v280h-101l1 240h425v-815h-325l-119 -25h-5q-326 0 -326 220z" />
<glyph unicode="H" d="M-28 1420h325l2 -625h125l-2 625h325l3 -1440h-325l-1 575h-125l1 -575h-325z" />
<glyph unicode="I" horiz-adv-x="375" d="M-25 -20v1440h325v-1440h-325z" />
<glyph unicode="J" d="M-25 175v195h325v-95q0 -80 50 -80h21q53 0 54 80v1145h325v-1245q0 -220 -325 -220h-124q-326 0 -326 220z" />
<glyph unicode="K" d="M-25 -20v1440h325v-408l128 408h329l-232 -720l232 -720h-326l-131 410v-410h-325z" />
<glyph unicode="L" horiz-adv-x="750" d="M-25 -20v1440h325v-1200h375v-240h-700z" />
<glyph unicode="M" horiz-adv-x="1125" d="M-25 -20v1440h472l64 -407l67 407h472v-1440h-325v331l-53 -331h-319l-53 331v-331h-325z" />
<glyph unicode="N" d="M-28 1420h322l131 -410v410h325v-1440h-319l-131 410v-410h-325z" />
<glyph unicode="O" d="M-29 175l4 1050q0 220 323 220h123q47 0 102 -7l244 386l-154 -409q137 -60 137 -190v-1050q0 -220 -324 -220h-125q-40 0 -90 6l-207 -377l117 398q-147 57 -150 193zM91 670h291l-196 -665l426 775h-296l228 607z" />
<glyph unicode="P" d="M-25 -20v1440h446q280 0 329 -218v-427q-5 -220 -300 -220h-150v-575h-325zM300 795h75q50 0 50 80v225q0 80 -49 80h-76v-385z" />
<glyph unicode="Q" d="M-25 175v1050q0 220 323 220h123q329 0 329 -220l4 -1050q0 -105 -67 -153l69 -267h-326l-51 200h-74q-326 0 -330 220zM300 670h125v455q0 80 -49 80h-25q-51 0 -51 -80v-455zM301 256q2 -25 10 -39z" />
<glyph unicode="R" d="M-25 -20v1440h446q329 0 329 -220v-425q0 -193 -190 -209l198 -586h-327l-131 393v-393h-325zM300 795h75q50 0 50 80v225q0 80 -49 80h-75z" />
<glyph unicode="S" d="M-25 175v295h325v-195q0 -80 46 -80h25q54 0 54 80v225q0 80 -53 80h-72q-325 0 -325 220v425q0 220 325 220h125q325 0 325 -220l1 -295h-327l1 195q0 80 -49 80h-25q-51 0 -51 -80v-225q0 -80 50 -80h75q325 0 325 -220v-425q0 -220 -324 -220h-125q-326 0 -326 220z " />
<glyph unicode="T" horiz-adv-x="775" d="M-25 1180v240h725v-240h-200v-1200h-325v1200h-200z" />
<glyph unicode="U" d="M-25 175v1245h325v-1145q0 -80 50 -80h21q53 0 54 80v1145h325v-1245q0 -220 -324 -220h-125q-326 0 -326 220z" />
<glyph unicode="V" d="M-28 1420h325l64 -407l67 407h325l-231 -1440h-319z" />
<glyph unicode="W" horiz-adv-x="1275" d="M-28 1420h325l64 -407l67 407h319l64 -407l67 407h325l-231 -1440h-319l-67 407l-64 -407h-319z" />
<glyph unicode="X" d="M-32 -20l231 720l-231 720h326l67 -212l70 212h326l-231 -720l231 -720h-326l-69 212l-68 -212h-326z" />
<glyph unicode="Y" d="M-32 1420h326l67 -212l70 212h326l-232 -722v-718h-325v718z" />
<glyph unicode="Z" horiz-adv-x="750" d="M-25 -20v223l366 977h-366v240h700v-223l-366 -977h366v-240h-700z" />
<glyph unicode="[" horiz-adv-x="750" d="M-25 -220v1840h700v-240h-375v-1360h375v-240h-700z" />
<glyph unicode="\" d="M-32 1420h326l463 -1440h-326z" />
<glyph unicode="]" horiz-adv-x="750" d="M-25 20h375v1360h-375v240h700v-1840h-700v240z" />
<glyph unicode="^" horiz-adv-x="750" d="M-37 1480l195 390h334l195 -390h-329l-34 66l-32 -66h-329z" />
<glyph unicode="_" horiz-adv-x="750" d="M-25 20h700v-240h-700v240z" />
<glyph unicode="`" horiz-adv-x="775" d="M-25 1636v234h308l417 -260v-130h-154z" />
<glyph unicode="a" d="M-25 175v225q0 195 300 195h150l1 155q0 80 -50 80q-51 0 -51 -80l-1 -120h-324v220q0 220 321 220h101q329 0 330 -220l-2 -870h-300l-149 -25q-326 0 -326 220zM300 276q0 -81 50 -81h25q47 0 50 81v104h-75q-50 0 -50 -80v-24z" />
<glyph unicode="b" d="M-25 -20v1440h325l1 -288q-2 -8 -2 -14q0 -48 126 -48q325 0 325 -220v-675q0 -220 -324 -220l-125 25h-326zM300 250q0 -55 50 -55h21q54 0 54 55v500q0 80 -48 80h-25q-52 0 -52 -80v-500z" />
<glyph unicode="c" d="M-25 175v675q0 220 323 220h123q329 0 329 -220l1 -245h-325l-1 145q0 80 -49 80h-25q-51 0 -51 -80v-475q0 -80 50 -80h25q49 0 50 80v145h325v-245q0 -220 -324 -220h-126q-325 0 -325 220z" />
<glyph unicode="d" d="M-25 175v675q0 220 325 220q127 0 127 44q0 6 -2 13v293h325v-1440h-325l-126 -25q-324 0 -324 220zM300 250q0 -55 54 -55h21q50 0 51 55l-1 500q0 80 -52 80h-25q-48 0 -48 -80v-500z" />
<glyph unicode="e" d="M-25 175v675q0 220 323 220h123q329 0 329 -220l1 -420h-450l-1 -155q0 -80 46 -80h25q53 0 54 80v120h325v-220q0 -220 -324 -220h-125q-326 0 -326 220zM300 750l1 -105h124v105q0 80 -49 80h-25q-51 0 -51 -80z" />
<glyph unicode="f" horiz-adv-x="600" d="M-25 805v240h100v180q0 220 300 220h150v-240h-75q-50 0 -50 -105v-55h125v-240h-125v-825h-325v825h-100z" />
<glyph unicode="g" d="M-25 175v675q0 220 300 220l150 -25h325v-1220q0 -220 -300 -220h-275v240h203q47 0 47 80l-150 30q-300 0 -300 220zM300 275q0 -80 46 -80h25q54 0 54 80v500q0 55 -50 55h-25q-49 -1 -49 -55z" />
<glyph unicode="h" d="M-25 -20v1440h325l1 -266q-3 -12 -3 -22q0 -62 127 -62q325 0 325 -220v-870h-325v770q0 80 -48 80h-25q-52 0 -52 -80v-770h-325z" />
<glyph unicode="i" horiz-adv-x="375" d="M-25 -20v1065h325v-1065h-325zM-25 1180v240h325l1 -240h-326z" />
<glyph unicode="j" horiz-adv-x="375" d="M-275 -155h203q47 0 47 80v1120h325l3 -1220q-3 -220 -303 -220h-275v240zM-25 1180v240h325v-240h-325z" />
<glyph unicode="k" d="M-25 -20v1440h325v-532l137 157h334l-318 -397l308 -668h-329l-132 321v-321h-325z" />
<glyph unicode="l" horiz-adv-x="375" d="M-25 -20v1440h325v-1440h-325z" />
<glyph unicode="m" horiz-adv-x="1275" d="M-25 -20v1065h325l150 25q245 0 250 -18q4 18 200 18q300 0 300 -220v-870h-325v769q-14 81 -48 81h-25q-52 0 -52 -80v-770h-325v770q0 80 -48 80h-25q-52 0 -52 -80v-770h-325z" />
<glyph unicode="n" d="M-25 -20v1065h325l175 25q275 0 277 -220l-2 -870h-325v770q0 80 -48 80h-25q-52 0 -52 -80v-770h-325z" />
<glyph unicode="o" d="M-25 175v675q0 220 323 220h123q27 0 65 -3l256 357l-159 -374q167 -53 167 -200v-675q0 -220 -324 -220h-125q-25 0 -63 2l-245 -344l146 363q-164 54 -164 199zM93 445h291l-181 -454q3 -1 5 -1l399 565h-292l203 479h-1z" />
<glyph unicode="p" d="M-25 -395v1440h325l150 25q300 0 300 -220v-675q0 -220 -300 -220q-151 0 -151 -50q0 -5 2 -12l-1 -288h-325zM300 250q0 -55 46 -55h25q55 0 55 55l-1 500q0 80 -48 80h-25q-52 0 -52 -80v-500z" />
<glyph unicode="q" d="M-26 175l1 675q0 220 300 220l150 -25h325v-1440h-325l-1 288q2 7 2 12q0 50 -151 50q-300 0 -301 220zM299 250q0 -55 55 -55h25q45 0 45 53l1 505q0 77 -52 77h-25q-48 0 -48 -80z" />
<glyph unicode="r" d="M-25 -20v1065h325l150 25q300 0 300 -220v-120h-325q0 100 -48 100h-25q-52 0 -52 -80v-770h-325z" />
<glyph unicode="s" d="M-25 175v195h325v-120q0 -55 46 -55h25q54 0 54 80v75q0 30 -50 30h-50q-350 0 -350 220v250q0 220 324 220h123q328 0 328 -220v-195h-325v95q0 80 -48 80h-25q-50 0 -52 -80v-75q0 -55 25 -55h86q339 0 339 -220v-225q0 -220 -324 -220h-125q-326 0 -326 220z" />
<glyph unicode="t" horiz-adv-x="625" d="M-25 880v165h100v268l325 118v-386h150v-165h-150v-605q0 -80 50 -80h100v-240h-175q-300 0 -300 220v705h-100z" />
<glyph unicode="u" d="M-25 175v870h325v-770q0 -80 46 -80h25q53 0 54 80v770h325v-1065h-325l-150 -25q-300 0 -300 220z" />
<glyph unicode="v" d="M-30 1045h326l66 -303l67 303h326l-234 -1065h-317z" />
<glyph unicode="w" horiz-adv-x="1275" d="M-32 1045h326l68 -303l65 303h317l68 -303l65 303h326l-232 -1065h-317l-68 303l-65 -303h-317z" />
<glyph unicode="x" d="M-38 1045h329l70 -159l69 159h328l-233 -532l235 -533h-302l-85 183l-80 -183h-328l239 546z" />
<glyph unicode="y" d="M-25 175v870h325v-769q12 -81 46 -81h25q53 0 54 80v770h325l3 -1220q-3 -220 -303 -220h-275v240h203q47 0 47 56q-8 54 -150 54q-300 0 -300 220z" />
<glyph unicode="z" horiz-adv-x="750" d="M-27 805v240h702v-224l-364 -601h364v-240h-700v224l360 601h-362z" />
<glyph unicode="{" horiz-adv-x="725" d="M-25 605v240h125q50 0 50 80v475q0 220 300 220h200v-240h-125q-50 0 -51 -80l1 -475q0 -85 -25 -100q25 -15 25 -100v-525q0 -80 51 -80h124v-240h-200q-300 0 -300 220v525q0 80 -47 80h-128z" />
<glyph unicode="|" horiz-adv-x="375" d="M-25 -220v1840h325v-1840h-325z" />
<glyph unicode="}" horiz-adv-x="725" d="M-25 20h124q51 0 51 80v525q0 85 25 100q-25 15 -25 100l1 475q-1 80 -51 80h-125v240h200q300 0 300 -220v-475q0 -80 50 -80h125v-240h-128q-47 0 -47 -80v-525q0 -220 -300 -220h-200v240z" />
<glyph unicode="~" d="M-25 1534v66q0 195 300 195h76q74 0 75 80l324 -59v-91q0 -170 -302 -170h-73q-75 0 -75 -80z" />
<glyph unicode="&#xa1;" horiz-adv-x="400" d="M-25 1275q0 60 55 102.5t133 42.5q77 0 132 -42.5t55 -102.5t-55 -102.5t-132 -42.5q-78 0 -133 42.5t-55 102.5zM0 -45v1065h325v-1065h-325z" />
<glyph unicode="&#xa2;" d="M-25 300v625q0 192 225 215v105h325v-106q225 -24 225 -214l1 -220h-326v120q0 80 -49 80h-25q-51 0 -51 -80v-425q0 -80 50 -80h25q49 0 50 80v120h325v-220q0 -191 -225 -214v-106h-325v106q-225 23 -225 214z" />
<glyph unicode="&#xa3;" horiz-adv-x="900" d="M-26 -20v240h100v335h-100v240h101v433q0 217 323 217h101q276 0 325 -218l1 -297h-327l1 195q0 80 -50 80q-51 0 -51 -80l1 -330h151v-240h-151v-335h425v-240h-850z" />
<glyph unicode="&#xa4;" d="M-36 1245h329l70 -158l69 158h328l-122 -277q102 -105 102 -245q0 -147 -108 -251q-2 -2 -2 -3q1 0 4 2l128 -291h-302l-85 183l-80 -183h-328l129 294q-106 104 -106 249q0 146 106 248q1 1 1 2t-1 1t-5 -2zM315 723q0 -53 17.5 -85.5t32.5 -32.5t32.5 32.5t17.5 85.5 q0 52 -17.5 84.5t-32.5 32.5t-32.5 -32.5t-17.5 -84.5z" />
<glyph unicode="&#xa5;" d="M-32 1420h326l67 -212l70 212h326l-209 -650h177v-240h-200v-160h200v-240h-200v-150h-325v150h-201l1 240h200v160h-200v240h177z" />
<glyph unicode="&#xa6;" horiz-adv-x="375" d="M-25 -220v815h325v-815h-325zM-25 755v865h325v-865h-325z" />
<glyph unicode="&#xa7;" d="M-25 50v270h325v-170q0 -80 46 -80h25q54 0 54 80v198q-14 -4 -65 -4q-157 0 -266 105.5t-109 252.5q0 15 1 26q-11 31 -11 72v550q0 220 325 220h125q276 0 325 -218l1 -272h-327l1 170q0 80 -49 80h-25q-51 0 -51 -80v-194q12 3 60 3q157 0 266 -105.5t109 -251.5 q0 -12 -1 -18q16 -35 16 -84v-550q0 -220 -324 -220h-125q-326 0 -326 220zM310 702q0 -53 17.5 -85.5t32.5 -32.5t32.5 32.5t17.5 85.5q0 52 -17.5 84.5t-32.5 32.5t-32.5 -32.5t-17.5 -84.5z" />
<glyph unicode="&#xa8;" d="M-25 1675q0 60 55 102.5t133 42.5q77 0 132 -42.5t55 -102.5t-55 -102.5t-132 -42.5q-78 0 -133 42.5t-55 102.5zM375 1675q0 60 55 102.5t133 42.5q77 0 132 -42.5t55 -102.5t-55 -102.5t-132 -42.5q-78 0 -133 42.5t-55 102.5z" />
<glyph unicode="&#xa9;" d="M-25 1050q0 233 115 401.5t285 168.5t285 -168.5t115 -401.5t-115 -401.5t-285 -168.5t-285 168.5t-115 401.5zM125 1050q0 -142 46 -249l2 499v3q-48 -108 -48 -253zM229 703q65 -83 146 -83q78 0 141 76q-41 -16 -105 -16h-62q-76 0 -120 23zM229 1398q43 22 118 22h62 q66 0 107 -17q-63 77 -141 77q-81 0 -146 -82zM361 850q0 -30 10 -30h13q14 0 14 30v95h188v-127q39 101 39 232t-39 232v-127h-188v95q0 30 -12 30h-12q-13 0 -13 -30v-400z" />
<glyph unicode="&#xaa;" horiz-adv-x="1650" d="M0 200v1100q0 200 200 200h1100q200 0 200 -200v-1100q0 -200 -200 -200h-1100q-200 0 -200 200zM25 200q1 -175 175 -175h1101q174 0 174 176v1099q0 175 -175 175h-1100q-174 0 -175 -175v-1100z" />
<glyph unicode="&#xab;" horiz-adv-x="1450" d="M-25 561v228l700 215v-190l700 215v-243l-285 -86l285 -86v-243l-700 215v-240zM390 675l285 -86v172z" />
<glyph unicode="&#xac;" horiz-adv-x="750" d="M-25 555v240h700v-440h-250v200h-450z" />
<glyph unicode="&#xad;" horiz-adv-x="750" d="M-25 555v240h700v-240h-700z" />
<glyph unicode="&#xae;" d="M-25 1050q0 233 115 401.5t285 168.5t285 -168.5t115 -401.5t-115 -401.5t-285 -168.5t-285 168.5t-115 401.5zM125 1050q0 -141 47 -249v498q-47 -108 -47 -249zM246 680q44 -60 129 -60t129 60h-101l-43 129v-129h-114zM246 1420h162q67 0 109 -17q-64 77 -142 77 q-85 0 -129 -60zM360 1108h25q12 0 12 30v112q0 30 -12 30h-25v-172zM493 974l70 -207q62 119 62 283q0 132 -40 234v-196q0 -106 -92 -114z" />
<glyph unicode="&#xaf;" horiz-adv-x="750" d="M-32 1620h800l4 -240h-800z" />
<glyph unicode="&#xb0;" horiz-adv-x="800" d="M-25 1063q0 146 109 251.5t266 105.5t266 -105.5t109 -251.5q0 -147 -109 -252.5t-266 -105.5t-266 105.5t-109 252.5zM300 1063q0 -53 17.5 -85.5t32.5 -32.5t32.5 32.5t17.5 85.5q0 52 -17.5 84.5t-32.5 32.5t-32.5 -32.5t-17.5 -84.5z" />
<glyph unicode="&#xb1;" horiz-adv-x="1650" d="M0 200v1100q0 200 200 200h1100q200 0 200 -200v-1100q0 -200 -200 -200h-1100q-200 0 -200 200zM25 200q1 -175 175 -175h1101q174 0 174 176v1099q0 175 -175 175h-1100q-174 0 -175 -175v-1100z" />
<glyph unicode="&#xb2;" horiz-adv-x="1650" d="M0 200v1100q0 200 200 200h1100q200 0 200 -200v-1100q0 -200 -200 -200h-1100q-200 0 -200 200zM25 200q1 -175 175 -175h1101q174 0 174 176v1099q0 175 -175 175h-1100q-174 0 -175 -175v-1100z" />
<glyph unicode="&#xb3;" horiz-adv-x="1650" d="M0 200v1100q0 200 200 200h1100q200 0 200 -200v-1100q0 -200 -200 -200h-1100q-200 0 -200 200zM25 200q1 -175 175 -175h1101q174 0 174 176v1099q0 175 -175 175h-1100q-174 0 -175 -175v-1100z" />
<glyph unicode="&#xb4;" horiz-adv-x="775" d="M-25 1480v130l417 260h308v-234l-571 -156h-154z" />
<glyph unicode="&#xb5;" d="M-25 -395v1440h325v-770q0 -80 46 -80h25q53 0 54 80v770h325v-1065h-325l-125 -25v-350h-325z" />
<glyph unicode="&#xb6;" horiz-adv-x="1125" d="M-30 750l2 452q49 218 329 218h749v-1440h-325v1200h-25v-1200h-325v551l-77 -1q-323 0 -328 220z" />
<glyph unicode="&#xb7;" horiz-adv-x="375" d="M-25 725q0 60 55 102.5t133 42.5q77 0 132 -42.5t55 -102.5t-55 -102.5t-132 -42.5q-78 0 -133 42.5t-55 102.5z" />
<glyph unicode="&#xb8;" horiz-adv-x="625" d="M-28 -155h203q47 0 47 80v295h325l3 -395q-3 -220 -303 -220h-275v240z" />
<glyph unicode="&#xb9;" horiz-adv-x="1650" d="M0 200v1100q0 200 200 200h1100q200 0 200 -200v-1100q0 -200 -200 -200h-1100q-200 0 -200 200zM25 200q1 -175 175 -175h1101q174 0 174 176v1099q0 175 -175 175h-1100q-174 0 -175 -175v-1100z" />
<glyph unicode="&#xba;" horiz-adv-x="1650" d="M0 200v1100q0 200 200 200h1100q200 0 200 -200v-1100q0 -200 -200 -200h-1100q-200 0 -200 200zM25 200q1 -175 175 -175h1101q174 0 174 176v1099q0 175 -175 175h-1100q-174 0 -175 -175v-1100z" />
<glyph unicode="&#xbb;" horiz-adv-x="1450" d="M-25 371v243l285 86l-285 86v243l700 -215v190l700 -215v-228l-700 -215v240zM675 589l285 86l-285 86v-172z" />
<glyph unicode="&#xbc;" horiz-adv-x="1650" d="M0 200v1100q0 200 200 200h1100q200 0 200 -200v-1100q0 -200 -200 -200h-1100q-200 0 -200 200zM25 200q1 -175 175 -175h1101q174 0 174 176v1099q0 175 -175 175h-1100q-174 0 -175 -175v-1100z" />
<glyph unicode="&#xbd;" horiz-adv-x="1650" d="M0 200v1100q0 200 200 200h1100q200 0 200 -200v-1100q0 -200 -200 -200h-1100q-200 0 -200 200zM25 200q1 -175 175 -175h1101q174 0 174 176v1099q0 175 -175 175h-1100q-174 0 -175 -175v-1100z" />
<glyph unicode="&#xbe;" horiz-adv-x="1650" d="M0 200v1100q0 200 200 200h1100q200 0 200 -200v-1100q0 -200 -200 -200h-1100q-200 0 -200 200zM25 200q1 -175 175 -175h1101q174 0 174 176v1099q0 175 -175 175h-1100q-174 0 -175 -175v-1100z" />
<glyph unicode="&#xbf;" d="M-25 175v450q0 220 325 220q47 0 47 96v9l4 95h324v-220q0 -220 -325 -220q-50 0 -50 -106v-224q0 -80 57 -80h25q43 0 43 80v195h325v-295q0 -220 -325 -220h-100q-350 0 -350 220zM325 1300q0 60 55 102.5t133 42.5q77 0 132 -42.5t55 -102.5t-55 -102.5t-132 -42.5 q-78 0 -133 42.5t-55 102.5z" />
<glyph unicode="&#xc0;" d="M-28 -20l231 1440h319l231 -1440h-325l-16 100h-99l-16 -100h-325zM0 1636v234h308l417 -260v-130h-154zM353 320h19l-10 60z" />
<glyph unicode="&#xc1;" d="M-28 -20l231 1440h319l231 -1440h-325l-16 100h-99l-16 -100h-325zM0 1480v130l417 260h308v-234l-571 -156h-154zM353 320h19l-10 60z" />
<glyph unicode="&#xc2;" d="M-28 -20l231 1440h319l231 -1440h-325l-16 100h-99l-16 -100h-325zM-12 1480l195 390h334l195 -390h-329l-34 66l-32 -66h-329zM353 320h19l-10 60z" />
<glyph unicode="&#xc3;" d="M-28 -20l231 1440h319l231 -1440h-325l-16 100h-99l-16 -100h-325zM-25 1534v66q0 195 300 195h76q74 0 75 80l324 -59v-91q0 -170 -302 -170h-73q-75 0 -75 -80zM353 320h19l-10 60z" />
<glyph unicode="&#xc4;" d="M-28 -20l231 1440h319l231 -1440h-325l-16 100h-99l-16 -100h-325zM-22 1675q0 60 55 102.5t133 42.5q77 0 132 -42.5t55 -102.5t-55 -102.5t-132 -42.5q-78 0 -133 42.5t-55 102.5zM353 320h19l-10 60zM378 1675q0 60 55 102.5t133 42.5q77 0 132 -42.5t55 -102.5 t-55 -102.5t-132 -42.5q-78 0 -133 42.5t-55 102.5z" />
<glyph unicode="&#xc5;" d="M-28 -20l231 1440h319l231 -1440h-325l-16 100h-99l-16 -100h-325zM37 1650q0 92 96 156t229 64t229 -64t96 -156t-96 -156t-229 -64t-229 64t-96 156zM337 1650q0 -14 8 -22t17 -8t17 8t8 22t-8 22t-17 8t-17 -8t-8 -22zM353 320h19l-10 60z" />
<glyph unicode="&#xc6;" horiz-adv-x="1200" d="M-28 -20l231 1440h922v-240h-375v-385h375v-240h-375v-335h375v-240h-697l-16 100h-99l-16 -100h-325zM353 320h19l-10 60z" />
<glyph unicode="&#xc7;" d="M-29 175l4 1050q0 220 323 220h123q329 0 329 -220v-295h-325v195q0 80 -49 80h-25q-51 0 -51 -80v-850q0 -80 46 -80h25q54 0 54 80v195h325v-295q0 -181 -200 -211v-139q-3 -220 -303 -220h-275v240h203q47 0 47 80v34q-247 17 -251 216z" />
<glyph unicode="&#xc8;" horiz-adv-x="750" d="M-37 1636v234h308l417 -260v-130h-154zM-25 -20v1440h700v-240h-375v-385h375v-240h-375v-335h375v-240h-700z" />
<glyph unicode="&#xc9;" horiz-adv-x="750" d="M-40 1480v130l417 260h308v-234l-571 -156h-154zM-25 -20v1440h700v-240h-375v-385h375v-240h-375v-335h375v-240h-700z" />
<glyph unicode="&#xca;" horiz-adv-x="750" d="M-25 -20v1440h700v-240h-375v-385h375v-240h-375v-335h375v-240h-700zM-12 1480l195 390h334l195 -390h-329l-34 66l-32 -66h-329z" />
<glyph unicode="&#xcb;" horiz-adv-x="750" d="M-62 1675q0 60 55 102.5t133 42.5q77 0 132 -42.5t55 -102.5t-55 -102.5t-132 -42.5q-78 0 -133 42.5t-55 102.5zM-25 -20v1440h700v-240h-375v-385h375v-240h-375v-335h375v-240h-700zM338 1675q0 60 55 102.5t133 42.5q77 0 132 -42.5t55 -102.5t-55 -102.5t-132 -42.5 q-78 0 -133 42.5t-55 102.5z" />
<glyph unicode="&#xcc;" horiz-adv-x="375" d="M-225 1636v234h308l417 -260v-130h-154zM-25 -20v1440h325v-1440h-325z" />
<glyph unicode="&#xcd;" horiz-adv-x="375" d="M-225 1480v130l417 260h308v-234l-571 -156h-154zM-25 -20v1440h325v-1440h-325z" />
<glyph unicode="&#xce;" horiz-adv-x="375" d="M-237 1480l195 390h334l195 -390h-329l-34 66l-32 -66h-329zM-25 -20v1440h325v-1440h-325z" />
<glyph unicode="&#xcf;" horiz-adv-x="375" d="M-255 1675q0 60 55 102.5t133 42.5q77 0 132 -42.5t55 -102.5t-55 -102.5t-132 -42.5q-78 0 -133 42.5t-55 102.5zM-25 -20v1440h325v-1440h-325zM145 1675q0 60 55 102.5t133 42.5q77 0 132 -42.5t55 -102.5t-55 -102.5t-132 -42.5q-78 0 -133 42.5t-55 102.5z" />
<glyph unicode="&#xd0;" horiz-adv-x="925" d="M-25 555v240h100v625h450q325 0 325 -220v-1000q0 -220 -325 -220h-450v575h-100zM400 220h71q54 0 54 80v800q0 80 -49 80h-75v-385h99v-240h-100v-335z" />
<glyph unicode="&#xd1;" d="M-28 1420h322l131 -410v410h325v-1440h-319l-131 410v-410h-325zM-25 1534v66q0 195 300 195h76q74 0 75 80l324 -59v-91q0 -170 -302 -170h-73q-75 0 -75 -80z" />
<glyph unicode="&#xd2;" d="M-29 175l4 1050q0 220 323 220h123q329 0 329 -220v-1050q0 -220 -324 -220h-125q-326 0 -330 220zM0 1636v234h308l417 -260v-130h-154zM300 275q0 -80 46 -80h25q54 0 54 80v850q0 80 -49 80h-25q-51 0 -51 -80v-850z" />
<glyph unicode="&#xd3;" d="M-29 175l4 1050q0 220 323 220h123q329 0 329 -220v-1050q0 -220 -324 -220h-125q-326 0 -330 220zM0 1480v130l417 260h308v-234l-571 -156h-154zM300 275q0 -80 46 -80h25q54 0 54 80v850q0 80 -49 80h-25q-51 0 -51 -80v-850z" />
<glyph unicode="&#xd4;" d="M-29 175l4 1050q0 220 323 220h123q329 0 329 -220v-1050q0 -220 -324 -220h-125q-326 0 -330 220zM-12 1480l195 390h334l195 -390h-329l-34 66l-32 -66h-329zM300 275q0 -80 46 -80h25q54 0 54 80v850q0 80 -49 80h-25q-51 0 -51 -80v-850z" />
<glyph unicode="&#xd5;" d="M-29 175l4 1050q0 220 323 220h123q329 0 329 -220v-1050q0 -220 -324 -220h-125q-326 0 -330 220zM-25 1534v66q0 195 300 195h76q74 0 75 80l324 -59v-91q0 -170 -302 -170h-73q-75 0 -75 -80zM300 275q0 -80 46 -80h25q54 0 54 80v850q0 80 -49 80h-25q-51 0 -51 -80 v-850z" />
<glyph unicode="&#xd6;" d="M-29 175l4 1050q0 220 323 220h123q329 0 329 -220v-1050q0 -220 -324 -220h-125q-326 0 -330 220zM-25 1675q0 60 55 102.5t133 42.5q77 0 132 -42.5t55 -102.5t-55 -102.5t-132 -42.5q-78 0 -133 42.5t-55 102.5zM300 275q0 -80 46 -80h25q54 0 54 80v850q0 80 -49 80 h-25q-51 0 -51 -80v-850zM375 1675q0 60 55 102.5t133 42.5q77 0 132 -42.5t55 -102.5t-55 -102.5t-132 -42.5q-78 0 -133 42.5t-55 102.5z" />
<glyph unicode="&#xd7;" horiz-adv-x="725" d="M-36 945h330l18 -50l20 50h328l-185 -432l185 -433h-303l-34 78l-30 -78h-328l189 446z" />
<glyph unicode="&#xd8;" d="M-29 175l4 1050q0 220 323 220h123q329 0 329 -220v-1050q0 -220 -324 -220h-125q-326 0 -330 220zM300 937l109 255q-7 13 -33 13h-25q-51 0 -51 -80v-188zM304 235q7 -40 42 -40h25q54 0 54 80v228z" />
<glyph unicode="&#xd9;" d="M-25 175v1245h325v-1145q0 -80 50 -80h21q53 0 54 80v1145h325v-1245q0 -220 -324 -220h-125q-326 0 -326 220zM0 1636v234h308l417 -260v-130h-154z" />
<glyph unicode="&#xda;" d="M-25 175v1245h325v-1145q0 -80 50 -80h21q53 0 54 80v1145h325v-1245q0 -220 -324 -220h-125q-326 0 -326 220zM0 1480v130l417 260h308v-234l-571 -156h-154z" />
<glyph unicode="&#xdb;" d="M-25 175v1245h325v-1145q0 -80 50 -80h21q53 0 54 80v1145h325v-1245q0 -220 -324 -220h-125q-326 0 -326 220zM-12 1480l195 390h334l195 -390h-329l-34 66l-32 -66h-329z" />
<glyph unicode="&#xdc;" d="M-25 175v1245h325v-1145q0 -80 50 -80h21q53 0 54 80v1145h325v-1245q0 -220 -324 -220h-125q-326 0 -326 220zM-25 1675q0 60 55 102.5t133 42.5q77 0 132 -42.5t55 -102.5t-55 -102.5t-132 -42.5q-78 0 -133 42.5t-55 102.5zM375 1675q0 60 55 102.5t133 42.5 q77 0 132 -42.5t55 -102.5t-55 -102.5t-132 -42.5q-78 0 -133 42.5t-55 102.5z" />
<glyph unicode="&#xdd;" d="M-32 1420h326l67 -212l70 212h326l-232 -722v-718h-325v718zM0 1480v95q0 295 275 295h425v-233l-420 -157h-280z" />
<glyph unicode="&#xde;" d="M-25 -20v1440h325v-275h121q280 0 329 -218v-427q-5 -220 -300 -220h-150v-300h-325zM300 520h75q50 0 50 80v225q0 80 -49 80h-76v-385z" />
<glyph unicode="&#xdf;" d="M-25 -20v1245q0 220 322 220h124q329 0 331 -220l1 -400q-5 -86 -29 -100q27 -15 27 -100l-1 -450q0 -220 -324 -220h-102v240h51q49 0 49 55l1 274q-10 81 -49 81h-51v240h45q56 0 56 80l-1 200q0 80 -49 80h-25q-50 0 -51 -80l1 -208l-1 1v-937z" />
<glyph unicode="&#xe0;" d="M-25 175v225q0 195 300 195h150l1 155q0 80 -50 80q-51 0 -51 -80l-1 -120h-324v220q0 220 321 220h101q329 0 330 -220l-2 -870h-300l-149 -25q-326 0 -326 220zM0 1336v234h308l417 -260v-130h-154zM300 276q0 -81 50 -81h25q47 0 50 81v104h-75q-50 0 -50 -80v-24z " />
<glyph unicode="&#xe1;" d="M-25 175v225q0 195 300 195h150l1 155q0 80 -50 80q-51 0 -51 -80l-1 -120h-324v220q0 220 321 220h101q329 0 330 -220l-2 -870h-300l-149 -25q-326 0 -326 220zM0 1180v130l417 260h308v-234l-571 -156h-154zM300 276q0 -81 50 -81h25q47 0 50 81v104h-75 q-50 0 -50 -80v-24z" />
<glyph unicode="&#xe2;" d="M-25 175v225q0 195 300 195h150l1 155q0 80 -50 80q-51 0 -51 -80l-1 -120h-324v220q0 220 321 220h101q329 0 330 -220l-2 -870h-300l-149 -25q-326 0 -326 220zM13 1180l195 390h334l195 -390h-329l-34 66l-32 -66h-329zM300 276q0 -81 50 -81h25q47 0 50 81v104h-75 q-50 0 -50 -80v-24z" />
<glyph unicode="&#xe3;" d="M-25 175v225q0 195 300 195h150l1 155q0 80 -50 80q-51 0 -51 -80l-1 -120h-324v220q0 220 321 220h101q329 0 330 -220l-2 -870h-300l-149 -25q-326 0 -326 220zM-25 1234v66q0 195 300 195h76q74 0 75 80l324 -59v-91q0 -170 -302 -170h-73q-75 0 -75 -80zM300 276 q0 -81 50 -81h25q47 0 50 81v104h-75q-50 0 -50 -80v-24z" />
<glyph unicode="&#xe4;" d="M-25 175v225q0 195 300 195h150l1 155q0 80 -50 80q-51 0 -51 -80l-1 -120h-324v220q0 220 321 220h101q329 0 330 -220l-2 -870h-300l-149 -25q-326 0 -326 220zM-25 1325q0 60 55 102.5t133 42.5q77 0 132 -42.5t55 -102.5t-55 -102.5t-132 -42.5q-78 0 -133 42.5 t-55 102.5zM300 276q0 -81 50 -81h25q47 0 50 81v104h-75q-50 0 -50 -80v-24zM375 1325q0 60 55 102.5t133 42.5q77 0 132 -42.5t55 -102.5t-55 -102.5t-132 -42.5q-78 0 -133 42.5t-55 102.5z" />
<glyph unicode="&#xe5;" d="M-25 175v225q0 195 300 195h150l1 155q0 80 -50 80q-51 0 -51 -80l-1 -120h-324v220q0 220 321 220h101q329 0 330 -220l-2 -870h-300l-149 -25q-326 0 -326 220zM50 1350q0 92 96 156t229 64t229 -64t96 -156t-96 -156t-229 -64t-229 64t-96 156zM300 276q0 -81 50 -81 h25q47 0 50 81v104h-75q-50 0 -50 -80v-24zM350 1350q0 -14 8 -22t17 -8t17 8t8 22t-8 22t-17 8t-17 -8t-8 -22z" />
<glyph unicode="&#xe6;" horiz-adv-x="1275" d="M-25 175v225q0 195 300 195h150v176q-6 59 -49 59q-51 0 -51 -80l-1 -120h-325l1 220q0 220 321 220h101q103 0 165 -20q60 20 161 20h123q329 0 329 -220l1 -420h-450v-173q5 -62 45 -62h25q53 0 54 80v120h325v-220q0 -220 -325 -220l-125 -1q-174 1 -174 26h-126 l-149 -25q-326 0 -326 220zM300 275q0 -80 50 -80h25q47 0 50 80v105h-75q-50 0 -50 -80v-25zM750 750l1 -105h124v105q0 80 -49 80h-25q-51 0 -51 -80z" />
<glyph unicode="&#xe7;" d="M-28 -155h203q48 0 50 80l-1 34q-245 17 -249 216v675q0 220 323 220h123q329 0 329 -220v-220h-325v120q0 80 -49 80h-25q-51 0 -51 -80v-475q3 -80 50 -80h25q50 0 50 80v120h325v-220q-1 -181 -200 -211v-139q-3 -220 -303 -220h-275v240z" />
<glyph unicode="&#xe8;" d="M-25 175v675q0 220 323 220h123q329 0 329 -220l1 -420h-450l-1 -155q0 -80 46 -80h25q53 0 54 80v120h325v-220q0 -220 -324 -220h-125q-326 0 -326 220zM0 1336v234h308l417 -260v-130h-154zM300 750l1 -105h124v105q0 80 -49 80h-25q-51 0 -51 -80z" />
<glyph unicode="&#xe9;" d="M-25 175v675q0 220 323 220h123q329 0 329 -220l1 -420h-450l-1 -155q0 -80 46 -80h25q53 0 54 80v120h325v-220q0 -220 -324 -220h-125q-326 0 -326 220zM0 1180v130l417 260h308v-234l-571 -156h-154zM300 750l1 -105h124v105q0 80 -49 80h-25q-51 0 -51 -80z" />
<glyph unicode="&#xea;" d="M-25 175v675q0 220 323 220h123q329 0 329 -220l1 -420h-450l-1 -155q0 -80 46 -80h25q53 0 54 80v120h325v-220q0 -220 -324 -220h-125q-326 0 -326 220zM-12 1180l195 390h334l195 -390h-329l-34 66l-32 -66h-329zM300 750l1 -105h124v105q0 80 -49 80h-25 q-51 0 -51 -80z" />
<glyph unicode="&#xeb;" d="M-25 175v675q0 220 323 220h123q329 0 329 -220l1 -420h-450l-1 -155q0 -80 46 -80h25q53 0 54 80v120h325v-220q0 -220 -324 -220h-125q-326 0 -326 220zM-25 1325q0 60 55 102.5t133 42.5q77 0 132 -42.5t55 -102.5t-55 -102.5t-132 -42.5q-78 0 -133 42.5t-55 102.5z M300 750l1 -105h124v105q0 80 -49 80h-25q-51 0 -51 -80zM375 1325q0 60 55 102.5t133 42.5q77 0 132 -42.5t55 -102.5t-55 -102.5t-132 -42.5q-78 0 -133 42.5t-55 102.5z" />
<glyph unicode="&#xec;" horiz-adv-x="375" d="M-225 1336v234h308l417 -260v-130h-154zM-25 -20v1065h325v-1065h-325z" />
<glyph unicode="&#xed;" horiz-adv-x="375" d="M-225 1180v130l417 260h308v-234l-571 -156h-154zM-25 -20v1065h325v-1065h-325z" />
<glyph unicode="&#xee;" horiz-adv-x="375" d="M-237 1180l195 390h334l195 -390h-329l-34 66l-32 -66h-329zM-25 -20v1065h325v-1065h-325z" />
<glyph unicode="&#xef;" horiz-adv-x="375" d="M-250 1180v240h325v-240h-325zM-25 -20v1065h325v-1065h-325zM200 1180v240h325v-240h-325z" />
<glyph unicode="&#xf0;" horiz-adv-x="925" d="M-25 175v450q0 220 300 220h150v60h-275v240h275q0 60 -50 60h-50v240h104q321 0 321 -220v-80h100v-240h-100v-730q0 -220 -300 -220h-149q-326 0 -326 220zM300 275q0 -80 50 -80h25q50 0 50 80v330h-75q-50 0 -50 -80v-250z" />
<glyph unicode="&#xf1;" d="M-25 -20v1065h325l175 25q275 0 277 -220l-2 -870h-325v770q0 80 -48 80h-25q-52 0 -52 -80v-770h-325zM-25 1234v66q0 195 300 195h76q74 0 75 80l324 -59v-91q0 -170 -302 -170h-73q-75 0 -75 -80z" />
<glyph unicode="&#xf2;" d="M-25 175v675q0 220 323 220h123q329 0 329 -220v-675q0 -220 -324 -220h-125q-326 0 -326 220zM0 1336v234h308l417 -260v-130h-154zM300 275q0 -80 46 -80h25q54 0 54 80v475q0 80 -49 80h-25q-51 0 -51 -80v-475z" />
<glyph unicode="&#xf3;" d="M-25 175v675q0 220 323 220h123q329 0 329 -220v-675q0 -220 -324 -220h-125q-326 0 -326 220zM0 1180v130l417 260h308v-234l-571 -156h-154zM300 275q0 -80 46 -80h25q54 0 54 80v475q0 80 -49 80h-25q-51 0 -51 -80v-475z" />
<glyph unicode="&#xf4;" d="M-25 175v675q0 220 323 220h123q329 0 329 -220v-675q0 -220 -324 -220h-125q-326 0 -326 220zM-12 1180l195 390h334l195 -390h-329l-34 66l-32 -66h-329zM300 275q0 -80 46 -80h25q54 0 54 80v475q0 80 -49 80h-25q-51 0 -51 -80v-475z" />
<glyph unicode="&#xf5;" d="M-25 175v675q0 220 323 220h123q329 0 329 -220v-675q0 -220 -324 -220h-125q-326 0 -326 220zM-25 1234v66q0 195 300 195h76q74 0 75 80l324 -59v-91q0 -170 -302 -170h-73q-75 0 -75 -80zM300 275q0 -80 46 -80h25q54 0 54 80v475q0 80 -49 80h-25q-51 0 -51 -80v-475 z" />
<glyph unicode="&#xf6;" d="M-25 175v675q0 220 323 220h123q329 0 329 -220v-675q0 -220 -324 -220h-125q-326 0 -326 220zM-25 1325q0 60 55 102.5t133 42.5q77 0 132 -42.5t55 -102.5t-55 -102.5t-132 -42.5q-78 0 -133 42.5t-55 102.5zM300 275q0 -80 46 -80h25q54 0 54 80v475q0 80 -49 80h-25 q-51 0 -51 -80v-475zM375 1325q0 60 55 102.5t133 42.5q77 0 132 -42.5t55 -102.5t-55 -102.5t-132 -42.5q-78 0 -133 42.5t-55 102.5z" />
<glyph unicode="&#xf7;" horiz-adv-x="775" d="M-25 555v240h725v-240h-725zM150 375q0 60 55 102.5t133 42.5q77 0 132 -42.5t55 -102.5t-55 -102.5t-132 -42.5q-78 0 -133 42.5t-55 102.5zM150 975q0 60 55 102.5t133 42.5q77 0 132 -42.5t55 -102.5t-55 -102.5t-132 -42.5q-78 0 -133 42.5t-55 102.5z" />
<glyph unicode="&#xf8;" d="M-25 175v675q0 220 323 220h123q329 0 329 -220v-675q0 -220 -324 -220h-125q-326 0 -326 220zM300 667l104 157q-5 6 -28 6h-25q-51 0 -51 -80v-83zM320 201q5 -6 26 -6h25q54 0 54 80v83z" />
<glyph unicode="&#xf9;" d="M-25 175v870h325v-770q0 -80 46 -80h25q53 0 54 80v770h325v-1065h-325l-150 -25q-300 0 -300 220zM0 1336v234h308l417 -260v-130h-154z" />
<glyph unicode="&#xfa;" d="M-25 175v870h325v-770q0 -80 46 -80h25q53 0 54 80v770h325v-1065h-325l-150 -25q-300 0 -300 220zM0 1180v130l417 260h308v-234l-571 -156h-154z" />
<glyph unicode="&#xfb;" d="M-25 175v870h325v-770q0 -80 46 -80h25q53 0 54 80v770h325v-1065h-325l-150 -25q-300 0 -300 220zM-12 1180l195 390h334l195 -390h-329l-34 66l-32 -66h-329z" />
<glyph unicode="&#xfc;" d="M-25 175v870h325v-770q0 -80 46 -80h25q53 0 54 80v770h325v-1065h-325l-150 -25q-300 0 -300 220zM-25 1325q0 60 55 102.5t133 42.5q77 0 132 -42.5t55 -102.5t-55 -102.5t-132 -42.5q-78 0 -133 42.5t-55 102.5zM375 1325q0 60 55 102.5t133 42.5q77 0 132 -42.5 t55 -102.5t-55 -102.5t-132 -42.5q-78 0 -133 42.5t-55 102.5z" />
<glyph unicode="&#xfd;" d="M-25 175v870h325v-769q12 -81 46 -81h25q53 0 54 80v770h325l3 -1220q-3 -220 -303 -220h-275v240h203q47 0 47 56q-8 54 -150 54q-300 0 -300 220zM0 1180v130l417 260h308v-234l-571 -156h-154z" />
<glyph unicode="&#xfe;" d="M-25 -395v1815h325v-293q-2 -6 -2 -11q0 -46 152 -46q300 0 300 -220v-675q0 -220 -300 -220q-151 0 -151 -50q0 -5 2 -12l-1 -288h-325zM300 250q0 -55 46 -55h25q55 0 55 55l-1 500q0 80 -48 80h-25q-52 0 -52 -80v-500z" />
<glyph unicode="&#xff;" d="M-25 175v870h325v-769q12 -81 46 -81h25q53 0 54 80v770h325l3 -1220q-3 -220 -303 -220h-275v240h203q47 0 47 56q-8 54 -150 54q-300 0 -300 220zM-25 1325q0 60 55 102.5t133 42.5q77 0 132 -42.5t55 -102.5t-55 -102.5t-132 -42.5q-78 0 -133 42.5t-55 102.5z M375 1325q0 60 55 102.5t133 42.5q77 0 132 -42.5t55 -102.5t-55 -102.5t-132 -42.5q-78 0 -133 42.5t-55 102.5z" />
<glyph unicode="&#x152;" horiz-adv-x="1200" d="M-29 175l4 1050q0 220 323 220h123q112 0 182 -25h526v-240h-375v-385h375v-240h-375v-335h375v-240h-524q-68 -25 -179 -25h-125q-326 0 -330 220zM300 275q0 -80 46 -80h25q54 0 54 80v850q0 80 -49 80h-25q-51 0 -51 -80v-850z" />
<glyph unicode="&#x153;" horiz-adv-x="1300" d="M-25 175v675q0 220 323 220h123q111 0 175 -22q63 22 172 22h123q329 0 329 -220l1 -420h-450l-1 -155q0 -80 46 -80h25q53 0 54 80v120h325v-220q0 -220 -324 -220h-125q-110 0 -173 22q-63 -22 -172 -22h-125q-326 0 -326 220zM300 275q0 -80 46 -80h25q54 0 54 80v475 q0 80 -49 80h-25q-51 0 -51 -80v-475zM770 750l1 -105h124v105q0 80 -49 80h-25q-51 0 -51 -80z" />
<glyph unicode="&#x2c6;" horiz-adv-x="750" d="M-36 1180l195 390h334l195 -390h-329l-34 66l-32 -66h-329z" />
<glyph unicode="&#x2dc;" d="M-25 1534v66q0 195 300 195h76q74 0 75 80l324 -59v-91q0 -170 -302 -170h-73q-75 0 -75 -80z" />
<glyph unicode="&#x2000;" horiz-adv-x="937" />
<glyph unicode="&#x2001;" horiz-adv-x="1875" />
<glyph unicode="&#x2002;" horiz-adv-x="937" />
<glyph unicode="&#x2003;" horiz-adv-x="1875" />
<glyph unicode="&#x2004;" horiz-adv-x="625" />
<glyph unicode="&#x2005;" horiz-adv-x="468" />
<glyph unicode="&#x2006;" horiz-adv-x="312" />
<glyph unicode="&#x2007;" horiz-adv-x="312" />
<glyph unicode="&#x2008;" horiz-adv-x="234" />
<glyph unicode="&#x2009;" horiz-adv-x="375" />
<glyph unicode="&#x200a;" horiz-adv-x="104" />
<glyph unicode="&#x2010;" horiz-adv-x="750" d="M-25 555v240h700v-240h-700z" />
<glyph unicode="&#x2011;" horiz-adv-x="750" d="M-25 555v240h700v-240h-700z" />
<glyph unicode="&#x2012;" horiz-adv-x="750" d="M-25 555v240h700v-240h-700z" />
<glyph unicode="&#x2013;" horiz-adv-x="750" d="M-25 555v240h700v-240h-700z" />
<glyph unicode="&#x2014;" horiz-adv-x="850" d="M-25 555v240h800v-240h-800z" />
<glyph unicode="&#x2018;" horiz-adv-x="375" d="M-25 1005v220q0 195 200 195v-175h125v-240h-325z" />
<glyph unicode="&#x2019;" horiz-adv-x="375" d="M-25 1180v240h325v-220q0 -195 -200 -195v175h-125z" />
<glyph unicode="&#x201a;" horiz-adv-x="375" d="M-25 -20v240h325v-220q0 -195 -200 -195v175h-125z" />
<glyph unicode="&#x201c;" horiz-adv-x="750" d="M-25 1005v220q0 195 200 195v-175h125v-240h-325zM350 1005v220q0 195 200 195v-175h125v-240h-325z" />
<glyph unicode="&#x201d;" horiz-adv-x="750" d="M-25 1180v240h325v-220q0 -195 -200 -195v175h-125zM350 1180v240h325v-220q0 -195 -200 -195v175h-125z" />
<glyph unicode="&#x201e;" horiz-adv-x="750" d="M-25 -20v240h325v-220q0 -195 -200 -195v175h-125zM350 -20v240h325v-220q0 -195 -200 -195v175h-125z" />
<glyph unicode="&#x2022;" horiz-adv-x="1550" d="M0 700q0 290 205 495t495 205t495 -205t205 -495t-205 -495t-495 -205t-495 205t-205 495zM50 700q0 -269 190.5 -459.5t459.5 -190.5t459.5 190.5t190.5 459.5t-190.5 459.5t-459.5 190.5t-459.5 -190.5t-190.5 -459.5zM100 685l400 10q2 -80 59 -136q17 -18 36 -30 l-209 -342q-58 36 -110 89q-171 170 -176 409zM412 1229q129 71 288 71t288 -71l-192 -353q-43 24 -96 24t-96 -24zM550 700q0 62 44 106t106 44t106 -44t44 -106t-44 -106t-106 -44t-106 44t-44 106zM805 529q19 12 37 30q56 56 58 136l400 -10q-5 -239 -175 -409 q-53 -53 -111 -89z" />
<glyph unicode="&#x2026;" horiz-adv-x="1175" d="M-15 100q0 60 55 102.5t133 42.5q77 0 132 -42q38 -30 50 -68q12 38 50 68q55 42 133 42q77 0 132 -42q38 -30 50 -68q12 38 50 68q55 42 133 42q77 0 132 -42.5t55 -102.5t-55 -102.5t-132 -42.5q-78 0 -133 43q-38 29 -50 67q-12 -38 -50 -67q-55 -43 -132 -43 q-78 0 -133 43q-38 29 -50 67q-12 -38 -50 -67q-55 -43 -132 -43q-78 0 -133 42.5t-55 102.5z" />
<glyph unicode="&#x202f;" horiz-adv-x="375" />
<glyph unicode="&#x2039;" horiz-adv-x="750" d="M-25 561v228l700 215v-243l-285 -86l285 -86v-243z" />
<glyph unicode="&#x203a;" horiz-adv-x="750" d="M-25 346v243l285 86l-285 86v243l700 -215v-228z" />
<glyph unicode="&#x205f;" horiz-adv-x="468" />
<glyph unicode="&#x20ac;" horiz-adv-x="925" d="M-26 355l1 240h98v160h-98v240h99l1 205q0 220 323 220h123q329 0 329 -220v-195h-325v95q0 80 -49 80h-25q-51 0 -51 -80v-105h275v-240h-275v-160h275v-240h-275v-55q0 -80 46 -80h25q54 0 54 80v45h325v-145q0 -220 -324 -220h-125q-326 0 -330 220l1 155h-98z" />
<glyph unicode="&#x2122;" horiz-adv-x="1950" d="M-25 1180v240h1000l150 25q245 0 250 -18q4 18 200 18q300 0 300 -220v-870h-325v769q-14 81 -48 81h-25q-52 0 -52 -80v-770h-325v770q0 80 -48 80h-25q-52 0 -52 -80v-770h-325v825h-150v-825h-325v825h-200z" />
<glyph unicode="&#x25fc;" horiz-adv-x="1045" d="M0 0v1045h1045v-1045h-1045z" />
</font>
</defs>
</svg>
